<svg xmlns="http://www.w3.org/2000/svg" viewBox="0 0 66.91 61.84"><defs><style>.cls-1{fill:#fff;}</style></defs><g id="Capa_2" data-name="Capa 2"><g id="Capa_1-2" data-name="Capa 1"><path class="cls-1" d="M66.87,9.06a2.19,2.19,0,0,0-2.49-2.3h-3c0-1,0-1.92,0-2.88V3.66A2.2,2.2,0,0,0,59,1.26H53.75a2.47,2.47,0,0,0-2.27.94A17.94,17.94,0,0,0,38.13.63C36.67,1,35.25,1.51,33.88,2c-.82.29-1.63.58-2.46.85a.83.83,0,0,1-.67,0A29.6,29.6,0,0,0,17.83,0,13.11,13.11,0,0,0,15,.46l-.11,0C6.34,2.4,3.41,8.36,3.07,9.1a21.16,21.16,0,0,0-2.95,9A21.57,21.57,0,0,0,3.66,32.58a21.32,21.32,0,0,0,2.82,3.21l.93.93c1.44,1.5,2.44,2.85,2.66,4.61.34,2.7.75,5.59,1.26,8.84l.08.53a22.48,22.48,0,0,0,1.42,5.76c1.5,3.38,4,5.19,7.34,5.36,3.79.19,6.37-1.88,7.1-5.7.23-1.19.44-2.38.66-3.57s.41-2.3.63-3.45c.08-.4.14-.81.21-1.22a12.75,12.75,0,0,1,.73-3c.36-.86.82-1,1.39-1h0c.57,0,1,.18,1.4,1a6.27,6.27,0,0,1,.39,1.29c.36,1.91.71,3.83,1.06,5.74.24,1.34.49,2.68.74,4A7.24,7.24,0,0,0,37,60.48a7,7,0,0,0,4.31,1.36,8.08,8.08,0,0,0,4.24-1.17,9.5,9.5,0,0,0,4.1-6.13,81.11,81.11,0,0,0,1.79-11c.29-2.58.82-4.63,2.45-6.26l.69-.72c.27-.28.54-.56.82-.83A20.8,20.8,0,0,0,61.53,17c.88,0,1.77,0,2.65,0h.26a2.18,2.18,0,0,0,2.44-2.28C66.93,12.83,66.92,10.92,66.87,9.06ZM54.49,29.58a22,22,0,0,1-2.85,3.3c-.39.4-.79.8-1.17,1.2a12.16,12.16,0,0,0-3.44,7l-.05.36c-.23,1.93-.47,3.92-.8,5.86-.11.64-.2,1.27-.29,1.91a28.25,28.25,0,0,1-.9,4.52,5.57,5.57,0,0,1-1.58,2.71,2.73,2.73,0,0,1-2.69.7,2.58,2.58,0,0,1-1.62-2.06c-.32-1.66-.62-3.32-.92-5-.17-.92-.33-1.84-.5-2.76l-.12-.68a13.56,13.56,0,0,0-1.24-4.22,6.14,6.14,0,0,0-5.41-3.34,6.06,6.06,0,0,0-2.69.63,6.61,6.61,0,0,0-3.53,4.82c-.35,1.55-.63,3.12-.91,4.65-.11.62-.22,1.24-.34,1.86l-.29,1.6c-.18,1-.35,1.91-.54,2.86-.24,1.19-.74,1.46-1.16,1.56a3.25,3.25,0,0,1-3.29-.85,6.34,6.34,0,0,1-1.57-3.3A97.22,97.22,0,0,1,15,42.46,13.52,13.52,0,0,0,11.24,34l-.93-.93c-.64-.62-1.23-1.22-1.78-1.86A17.22,17.22,0,0,1,6.32,12.93c.29-.47.61-1,.94-1.7a5.31,5.31,0,0,0,.4-.68,12.48,12.48,0,0,1,8.79-5.62,16.54,16.54,0,0,1,3.08-.26,21.91,21.91,0,0,1,7.24,1.61c.76.29,1.51.6,2.26.9a35.82,35.82,0,0,0,5.73,2c1.38.3,2.88.59,4.59.87a2.34,2.34,0,1,0,.87-4.6l-.36-.06-.15,0-.62-.11a12.86,12.86,0,0,1,4.76-.51,14.62,14.62,0,0,1,6.21,2c-.7,0-1.4,0-2.1,0a2.19,2.19,0,0,0-2.38,2.18,56.15,56.15,0,0,0,0,5.83A2.16,2.16,0,0,0,48,17c1,0,2.06,0,3.13,0,0,1,0,2.05,0,3.12a2.14,2.14,0,0,0,2.16,2.4c1.15.07,2.4.09,3.77.06A16.15,16.15,0,0,1,54.49,29.58ZM63.39,13c0,.44-.17.59-.61.59-1.05,0-2.11,0-3.16,0-1.25,0-1.74.5-1.75,1.74,0,1,0,2,0,3.05,0,.53-.14.76-.71.73a17.38,17.38,0,0,0-1.91,0c-.51,0-.71-.15-.7-.68,0-1,0-2,0-3,0-1.31-.49-1.79-1.82-1.8-1,0-2.07,0-3.1,0-.44,0-.61-.16-.6-.6,0-.74,0-1.47,0-2.21,0-.35.14-.51.5-.5.61,0,1.23,0,1.85,0H53a1.42,1.42,0,0,0,1.61-1.62c0-1.08,0-2.15,0-3.23,0-.48.14-.68.65-.66.67,0,1.35,0,2,0,.51,0,.65.2.64.67,0,1.05,0,2.11,0,3.16s.5,1.67,1.68,1.68,2.11,0,3.16,0c.54,0,.7.18.68.7A19.64,19.64,0,0,0,63.39,13Z"/></g></g></svg>