<svg xmlns="http://www.w3.org/2000/svg" viewBox="0 0 69.83 69.83"><defs><style>.cls-1{fill:#fff;}</style></defs><g id="Capa_2" data-name="Capa 2"><g id="Capa_1-2" data-name="Capa 1"><path class="cls-1" d="M4.09,56.5c0-1,0-2,0-2.93a.76.76,0,0,0-.48-.79A6,6,0,0,1,0,46.88C0,45.59,0,44.29,0,43a5.93,5.93,0,0,1,3.38-5.42,1.1,1.1,0,0,0,.71-1.14c0-1.79,0-3.58,0-5.37a2.09,2.09,0,0,1,2.3-2.33,57,57,0,0,1,10.82.92,1.48,1.48,0,0,0,1.37-.36,18,18,0,0,1,6.32-3.65c.53-.18.6-.33.17-.74a13.66,13.66,0,0,1-4.45-11.65C21.2,7.39,24.28,3.12,29.81,1a14.13,14.13,0,0,1,18.7,8.9c1.81,5.58.57,10.6-3.56,14.84l-.29.29c-.28.24-.32.43.09.56a19,19,0,0,1,6.77,3.94,1.11,1.11,0,0,0,1,.14,57.78,57.78,0,0,1,10.82-.92,2.1,2.1,0,0,1,2.36,2.34c0,1.81,0,3.63,0,5.44a1,1,0,0,0,.6,1,6,6,0,0,1,3.49,5.55c0,1.39,0,2.77,0,4.15a5.88,5.88,0,0,1-3.37,5.42,1.15,1.15,0,0,0-.72,1.21c0,1.79,0,3.58,0,5.37a2.07,2.07,0,0,1-2.15,2.28c-2.46.16-4.93.18-7.39.5a45.08,45.08,0,0,0-18.71,6.61c-2.57,1.62-2.58,1.62-5.17,0a44.47,44.47,0,0,0-17.49-6.43A47.57,47.57,0,0,0,8,61.61c-.66,0-1.31-.06-2-.11a2,2,0,0,1-1.92-2c0-1,0-2,0-3ZM32.82,52c0-3.72,0-7.44,0-11.17a1,1,0,0,0-.59-1A43.77,43.77,0,0,0,17,33.91a57.14,57.14,0,0,0-8-.88c-.5,0-.69.15-.67.66,0,.93,0,1.86,0,2.79a1,1,0,0,0,.68,1.09A5.92,5.92,0,0,1,12.35,43c0,1.31,0,2.63,0,3.94a6,6,0,0,1-3.58,5.78.82.82,0,0,0-.51.85c0,1,0,2,0,2.93,0,.62.19.8.81.82a57.93,57.93,0,0,1,9.37,1.14A48.64,48.64,0,0,1,31.8,63.4c1,.56,1,.54,1-.64ZM37,52V63c0,.91,0,.93.82.48A48.92,48.92,0,0,1,49.13,59a56.24,56.24,0,0,1,11.69-1.67c.62,0,.77-.24.74-.81,0-.91,0-1.82,0-2.72a1.1,1.1,0,0,0-.69-1.16,5.93,5.93,0,0,1-3.41-5.47c0-1.29,0-2.59,0-3.88a6,6,0,0,1,3.58-5.84.8.8,0,0,0,.51-.85c0-.93,0-1.86,0-2.79,0-.62-.16-.84-.81-.81-1.83.08-3.66.22-5.48.47a44.73,44.73,0,0,0-17.51,6.2A1.36,1.36,0,0,0,37,41C37,44.69,37,48.34,37,52ZM34.89,4.23A10.13,10.13,0,0,0,24.8,14.5,10.12,10.12,0,1,0,45,14.45,10.12,10.12,0,0,0,34.89,4.23ZM23.28,31.07c.22.09.33.16.45.2a47.68,47.68,0,0,1,10.66,4.91,1,1,0,0,0,1.18-.09,48.07,48.07,0,0,1,10.35-4.77c.18-.05.41-.05.52-.27a11.51,11.51,0,0,0-4.89-1.93,75.77,75.77,0,0,0-11.07-.23,12.3,12.3,0,0,0-2.82.35A13.66,13.66,0,0,0,23.28,31.07Zm-19.1,14a15.16,15.16,0,0,0,.1,2.43A2,2,0,0,0,6.2,49.12a1.85,1.85,0,0,0,1.86-1.58,18,18,0,0,0,0-4.81,1.88,1.88,0,0,0-1.91-1.61,2,2,0,0,0-1.89,1.65A14.88,14.88,0,0,0,4.18,45.08Zm61.45.38c0-1,0-1.67,0-2.35a1.49,1.49,0,0,0-.08-.4,2,2,0,0,0-1.87-1.59,1.88,1.88,0,0,0-1.91,1.61,17.94,17.94,0,0,0,0,4.8,1.85,1.85,0,0,0,1.85,1.59,2,2,0,0,0,1.93-1.6A10.93,10.93,0,0,0,65.63,45.46Z"/></g></g></svg>