<svg xmlns="http://www.w3.org/2000/svg" viewBox="0 0 186.31 186.31"><defs><style>.cls-1{fill:#fff;}.cls-2{fill:none;}</style></defs><g id="Capa_2" data-name="Capa 2"><g id="Capa_1-2" data-name="Capa 1"><g id="vKGV6f"><path class="cls-1" d="M118.87,80.25q-2.19,5.67-4.39,11.35c-1.19,3.07-2.26,6.19-3.59,9.2a7.21,7.21,0,0,1-9.5,3.7,7.36,7.36,0,0,1-3.5-9.36c2.9-7.39,5.72-14.81,8.59-22.21,1.63-4.19,3.16-8.43,5-12.54a19.85,19.85,0,0,1,12.4-11.07,22.85,22.85,0,0,1,7.43-1.06c4.75,0,9.5,0,14.25,0A20.9,20.9,0,0,1,159.38,53a20,20,0,0,1,6.08,8.19q4.48,11.51,8.93,23,2.3,6,4.54,11.94a6.17,6.17,0,0,1-1.7,6.79,6.69,6.69,0,0,1-7,1.89c-2.9-.88-4.28-3.06-5.28-5.73-2.19-5.84-4.48-11.65-6.73-17.47,0-.08-.12-.14-.33-.36a36.1,36.1,0,0,0,1.07,6.2c.76,4.23,1.61,8.45,2.45,12.67.95,4.84,1.94,9.67,2.9,14.5.61,3,1.16,6.08,1.81,9.1.27,1.24-.26,1.57-1.35,1.57-2.08,0-4.17,0-6.25,0-1.21,0-1.63.24-1.62,1.61q.1,19.41,0,38.82c0,4.88-3.7,8.85-8.12,9.05a8.55,8.55,0,0,1-9-8.58q0-19.48,0-39c0-1,.09-1.94-1.43-1.94s-1.44.93-1.43,1.94c0,13,0,26,0,39a8.56,8.56,0,0,1-14.3,6.29c-2.34-2-2.84-4.87-2.85-7.8q0-18.39,0-36.78c0-2.58,0-2.58-2.65-2.59h-4.66c-1.92,0-2.06-.12-1.69-2.14.75-4.05,1.61-8.07,2.39-12.11,1.56-8.06,3.08-16.14,4.65-24.2.42-2.17,1-4.33,1.44-6.49Z"/><path class="cls-1" d="M26.94,80.08c-2.23,7.66-4.45,15.33-6.72,23a7.16,7.16,0,0,1-8.68,4.72A7.24,7.24,0,0,1,6.71,99Q11,84.23,15.27,69.46C16.33,65.84,17,62.07,19,58.79c3.26-5.37,8.05-8.35,14.33-8.46,8.09-.15,16.19,0,24.28,0A17,17,0,0,1,73.34,61.13c1.6,4.21,2.59,8.61,3.85,12.93q3.6,12.33,7.17,24.67a7.18,7.18,0,0,1-4.61,9A6.88,6.88,0,0,1,71,103.09c-2-6.19-3.68-12.44-5.5-18.66a16.68,16.68,0,0,0-1.39-3.6v87.08c0,5.06-3.58,8.45-8.57,8.69-4.16.21-8.66-3.62-8.62-9.48.11-15.7,0-31.4,0-47.1,0-.53,0-1.07,0-1.6,0-1-.48-1.26-1.37-1.25s-1.27.35-1.25,1.21c0,.49,0,1,0,1.46q0,23.17,0,46.37a12.8,12.8,0,0,1-.83,5.26,8.5,8.5,0,0,1-9.78,5,8.35,8.35,0,0,1-6.54-8.32q0-43.24,0-86.5V80Z"/><path class="cls-1" d="M18.16,24.08c2.23,0,4.46,0,6.69,0,1,0,1.39-.31,1.43-1.33a14.61,14.61,0,0,1,5.79-11.53,12.47,12.47,0,0,1,7.61-2.84c3.34-.06,6.69,0,10,0a14.32,14.32,0,0,1,12.82,9.55c1.39,4.49,1.07,9.08.72,13.67a16.82,16.82,0,0,1-6.49,12.21A17.7,17.7,0,0,1,32,41.54a17.92,17.92,0,0,1-4.25-11.17c-.07-1.32-.59-1.62-1.78-1.61-4.8,0-9.6,0-14.39,0-1.33,0-2.43-.37-2.74-1.84a2.31,2.31,0,0,1,2.48-2.83c2.28-.06,4.56,0,6.83,0Z"/><path class="cls-1" d="M120.5,27.74c-.79-9.58,8.24-18.42,18.31-18.18,9.42.22,17.68,8.45,17.55,18.11a18,18,0,0,1-17.93,18C128.53,45.82,119.86,37.19,120.5,27.74Z"/><path class="cls-1" d="M99.57,30.09c.26-3.47-.4-7.39.28-11.3a13.32,13.32,0,0,1,22.42-6.59c.3.3.8.55.69,1s-.71.4-1.11.48c-3.39.73-5,2.72-5,6.25,0,5.08,0,10.17,0,15.25,0,7.08-5.62,13.07-12.79,14.07-5.08.7-9.18-.94-12.77-4.34a6.75,6.75,0,0,1-.67-.76c-.23-.31-.58-.65-.32-1s.61,0,.92,0a7,7,0,0,0,8.4-6.84C99.64,34.4,99.57,32.46,99.57,30.09Z"/></g><rect class="cls-2" width="186.31" height="186.31"/></g></g></svg>