<svg xmlns="http://www.w3.org/2000/svg" viewBox="0 0 77.18 77.23"><defs><style>.cls-1{fill:#fff;}</style></defs><g id="Capa_2" data-name="Capa 2"><g id="Capa_1-2" data-name="Capa 1"><path class="cls-1" d="M38.6,77.23H4.72c-1.6,0-2.06-.56-1.76-2.14a5.64,5.64,0,0,1,5.43-4.75,3.49,3.49,0,0,0,2.94-1.68c.9-1.42,1.87-2.79,2.78-4.2a1.78,1.78,0,0,1,1.68-.91c2.41,0,4.82,0,7.23,0,.63,0,.8-.22.82-.83a2.11,2.11,0,0,0-.95-2.14,3.18,3.18,0,0,1-1.11-3.76,3.4,3.4,0,0,1,3.27-2.32c2.34,0,4.67,0,7,0,.64,0,.82-.22.82-.82q0-14.08,0-28.16a1.13,1.13,0,0,0-.58-1.1,3.4,3.4,0,0,1,0-5.88,1,1,0,0,0,.55-1,9,9,0,0,1,0-1.72,4.9,4.9,0,0,0-1.25-4,.91.91,0,0,0-.75-.4H19.35c-.49,0-.6.22-.54.66a3.21,3.21,0,0,1-1.22,3.06.69.69,0,0,0-.21,1q4.57,9.5,9.11,19c1.28,2.67,2.52,5.36,3.85,8a4.09,4.09,0,0,1,.27,2.91,7.9,7.9,0,0,1-7.84,6.31c-5.07,0-10.14,0-15.21,0A7.92,7.92,0,0,1,0,44.75a2.89,2.89,0,0,1,.31-1.3L11.68,19.68c.55-1.15,1.09-2.31,1.66-3.46a.75.75,0,0,0-.19-1.09,3.34,3.34,0,0,1-.76-4.35,1,1,0,0,0,0-1.09,3.41,3.41,0,0,1,3-5.15q7.53,0,15.06,0a1.37,1.37,0,0,0,1.33-.73,8,8,0,0,1,13.55,0,1.47,1.47,0,0,0,1.45.78c4.9,0,9.79.09,14.68,0a3.51,3.51,0,0,1,3.26,5.34.71.71,0,0,0,0,.83A3.35,3.35,0,0,1,64,15.19c-.42.38-.29.67-.1,1q3.62,7.53,7.22,15.07c1.82,3.8,3.59,7.63,5.48,11.39a5.27,5.27,0,0,1,.17,4.42,7.88,7.88,0,0,1-7.43,5.26h-15a8,8,0,0,1-7.93-7.52,2.7,2.7,0,0,1,.33-1.37L56.17,23.8c1.21-2.54,2.42-5.08,3.65-7.6.21-.45.24-.72-.2-1.07a3.18,3.18,0,0,1-1.2-3.07c.06-.47-.1-.64-.56-.64H46.34c-.15,0-.38,0-.43.08-.52.86-1.49,1.48-1.53,2.59s0,2.36,0,3.54a1,1,0,0,0,.51.91,3.41,3.41,0,0,1,0,6,1,1,0,0,0-.51.92q0,14.19,0,28.38c0,.56.21.73.75.73,2.29,0,4.57,0,6.85,0A3.45,3.45,0,0,1,53.91,61a2.8,2.8,0,0,0-.4,2.46c.2.22.47.14.71.14,2.34,0,4.67,0,7,0a2.06,2.06,0,0,1,2,1.1c.85,1.37,1.8,2.67,2.66,4a3.45,3.45,0,0,0,2.94,1.68,5.66,5.66,0,0,1,5.45,4.91c.23,1.4-.25,2-1.66,2ZM15.4,17.62l-.28.51L10.7,27.35,3.5,42.42c-.38.81-.36.82.55.82H26.4c1.26,0,1.26,0,.73-1.13l-7.38-15.4C18.32,23.73,16.89,20.75,15.4,17.62Zm46.46.13c-.23.11-.24.33-.33.5-1.22,2.55-2.45,5.11-3.67,7.67L50.09,42.13c-.53,1.1-.52,1.11.67,1.11H72.81c1.32,0,1.32,0,.75-1.18Q68,30.36,62.35,18.66A2.78,2.78,0,0,0,61.86,17.75ZM38.61,70.34H63.23c.22,0,.51.11.64-.11s-.12-.4-.23-.58c-.71-1.07-1.43-2.12-2.12-3.2a1,1,0,0,0-1-.52H16.7a1.11,1.11,0,0,0-1,.58c-.64,1-1.33,2-2,3-.14.22-.47.44-.31.71s.51.11.78.11Zm3.28-30.51c0-4.66,0-9.33,0-14,0-.64-.15-.9-.84-.88-1.65.05-3.31,0-5,0-.61,0-.78.2-.78.78q0,14,0,28c0,.65.24.81.84.8,1.61,0,3.21,0,4.82,0,.73,0,.93-.23.93-.95C41.88,49,41.89,44.42,41.89,39.83Zm-3.28,35H70.76c.26,0,.63.16.76-.12s-.19-.54-.37-.77a3.92,3.92,0,0,0-3.33-1.25H9.7c-.3,0-.6,0-.9,0A3.47,3.47,0,0,0,6.08,74c-.19.23-.5.47-.38.77s.5.12.76.12Zm.08-18h-6.4c-2.31,0-4.61,0-6.92,0-.8,0-1.26.36-1.32,1s.29,1,1.1,1.17a1.26,1.26,0,0,1,1.13,1.36c0,.81,0,1.61,0,2.41,0,.61.21.8.79.76s1.4,0,2.11,0H50c.29,0,.7.14.84-.14a2.67,2.67,0,0,0,.08-1.7c-.09-.48-.58-.29-.89-.3q-9.85,0-19.72,0c-.25,0-.5,0-.75,0a1.18,1.18,0,0,1,0-2.35c.27,0,.55,0,.83,0H51.46c1.19,0,1.73-.35,1.71-1.11s-.53-1-1.69-1ZM62,45.61c-4.06,0-8.12,0-12.18,0-.67,0-.77.2-.54.79A5.63,5.63,0,0,0,54.63,50c4.79,0,9.58,0,14.37,0a5.51,5.51,0,0,0,5.37-3.42c.4-.89.34-1-.61-1Zm-46.62,0H3.38c-.84,0-.9.07-.58.83A5.51,5.51,0,0,0,8.23,50q7.18.06,14.37,0a5.51,5.51,0,0,0,5.3-3.41c.41-.89.34-1-.61-1ZM44.15,8a5.54,5.54,0,1,0-5.52,5.6A5.61,5.61,0,0,0,44.15,8ZM22.88,9.06H29.2c1.37,0,1.34,0,1.42-1.4,0-.61-.12-.77-.72-.77-4.67,0-9.33,0-14,0a2.8,2.8,0,0,0-.82.11.92.92,0,0,0-.7,1,1,1,0,0,0,.68,1,2.41,2.41,0,0,0,1,.11ZM54.35,6.91H48c-1.38,0-1.35,0-1.43,1.39,0,.58.1.77.72.77,4.66,0,9.32,0,14,0A2.54,2.54,0,0,0,62,9a1,1,0,0,0,.85-1,1,1,0,0,0-.89-1,3.69,3.69,0,0,0-.82,0ZM38.58,22.61h4a3.71,3.71,0,0,0,.67-.05,1,1,0,0,0,.9-1,1,1,0,0,0-.91-1,3.74,3.74,0,0,0-.75,0H34.74a3.68,3.68,0,0,0-.82.07,1,1,0,0,0,0,2,3.12,3.12,0,0,0,.75.06Zm0-4.52c.43,0,.85,0,1.28,0,2.37-.06,2,.47,2-2.1,0-.54-.17-.66-.67-.47a8.54,8.54,0,0,1-4.08.33c-.6-.07-1.33-.74-1.71-.26s-.08,1.25-.11,1.9c0,.47.21.61.65.6C36.85,18.08,37.73,18.09,38.61,18.09Zm24.22-5.58a1,1,0,0,0-1-1,1.07,1.07,0,0,0-1.06,1.06,1,1,0,0,0,1,1A1,1,0,0,0,62.83,12.51Zm-46.42,0a1,1,0,0,0-1-1,.93.93,0,0,0-1,.93,1,1,0,0,0,1,1.1A1.06,1.06,0,0,0,16.41,12.54Z"/><path class="cls-1" d="M38.64,11.42A3.49,3.49,0,0,1,35.12,8a3.49,3.49,0,0,1,7,0A3.47,3.47,0,0,1,38.64,11.42ZM37.6,8a1,1,0,1,0,1-1A1,1,0,0,0,37.6,8Z"/></g></g></svg>