<svg xmlns="http://www.w3.org/2000/svg" viewBox="0 0 88.53 48.12"><defs><style>.cls-1{fill:#fff;}</style></defs><g id="Capa_2" data-name="Capa 2"><g id="Capa_1-2" data-name="Capa 1"><path class="cls-1" d="M87.43,14.22A71.75,71.75,0,0,0,40.26.12a72.86,72.86,0,0,0-13.72,2.1,72.12,72.12,0,0,0-25.14,12c-1.48,1.1-1.74,2.08-1,3.75Q1.09,19.45,1.79,21l3.87,8.56,7.56,16.75c.56,1.24,1.25,1.83,2.23,1.83a4.07,4.07,0,0,0,1.5-.35c.46-.18.91-.38,1.37-.57s1.23-.52,1.85-.76a66.72,66.72,0,0,1,19.6-4.29,70.15,70.15,0,0,1,15.28.66,68,68,0,0,1,16.22,4.73c2.16.93,3.16.53,4.14-1.63L86.66,21l1.46-3.23a3.65,3.65,0,0,0,.41-1.5A2.37,2.37,0,0,0,87.43,14.22ZM83.1,17.51c-4.19,9.23-7.86,17.36-11.22,24.87a.76.76,0,0,1-.15.25,1.58,1.58,0,0,1-.39-.12,69.25,69.25,0,0,0-12.81-3.84,71.92,71.92,0,0,0-18.2-1.28,70,70,0,0,0-23,5.17c-.53.22-.56.2-.8-.34C13,34.33,9.36,26.32,5.45,17.74c-.22-.5-.2-.6.25-.91A67.13,67.13,0,0,1,35.22,5.3a74,74,0,0,1,8.57-.64,68.24,68.24,0,0,1,30.76,7.09,72.09,72.09,0,0,1,8.37,5C83.27,17,83.31,17,83.1,17.51Z"/><path class="cls-1" d="M55.91,15c-1.6,0-3.19,0-4.78,0-.64,0-.85-.22-.84-.85,0-1.62,0-3.24,0-4.86a1.88,1.88,0,0,0-2.13-2.16H40.74c-1.94,0-2.51.56-2.51,2.47,0,1.5,0,3,0,4.52,0,.67-.21.89-.88.88-1.62,0-3.25,0-4.87,0-1.35,0-2.05.59-2.14,1.91a79.91,79.91,0,0,0,0,8.19c.06,1.4.76,2,2.16,2,1.65,0,3.3,0,4.95,0,.6,0,.81.2.8.8,0,1.65,0,3.29,0,4.94,0,1.38.54,2.08,1.88,2.16a81.47,81.47,0,0,0,8.27,0c1.36-.07,1.91-.78,1.92-2.13,0-1.65,0-3.3,0-5,0-.64.22-.84.84-.83,1.63,0,3.25,0,4.87,0,1.46,0,2.16-.56,2.2-2,.07-2.67.07-5.35,0-8C58.14,15.55,57.41,15,55.91,15ZM54.5,22.53c0,.64-.25.85-.86.84-1.51,0-3,0-4.52,0-1.78,0-2.49.72-2.5,2.49,0,1.44,0,2.89,0,4.34,0,.76-.2,1.1-1,1.05a24.68,24.68,0,0,0-2.72,0c-.73,0-1-.21-1-1,.05-1.45,0-2.9,0-4.35,0-1.87-.7-2.55-2.59-2.56-1.48,0-3,0-4.44,0-.62,0-.86-.23-.85-.85,0-1.05,0-2.1,0-3.15,0-.5.2-.73.71-.71.88,0,1.76,0,2.64,0h0c.74,0,1.48,0,2.22,0a2,2,0,0,0,2.3-2.33c0-1.53,0-3.06,0-4.6,0-.69.2-1,.92-.94,1,0,1.94,0,2.9,0,.74,0,.93.28.91,1,0,1.51,0,3,0,4.52,0,1.68.72,2.39,2.39,2.4,1.51,0,3,0,4.53,0,.76,0,1,.26,1,1C54.45,20.6,54.47,21.57,54.5,22.53Z"/></g></g></svg>