<svg xmlns="http://www.w3.org/2000/svg" viewBox="0 0 73.78 73.8"><defs><style>.cls-1{fill:#fff;}</style></defs><g id="Capa_2" data-name="Capa 2"><g id="Capa_1-2" data-name="Capa 1"><path class="cls-1" d="M54.76,36.26a16.45,16.45,0,0,1,6.83-7.7,1.68,1.68,0,0,1,1.21-.35,1.32,1.32,0,0,1,1.05,1,1.26,1.26,0,0,1-.61,1.42,24.79,24.79,0,0,0-2.92,2.2,12.35,12.35,0,0,0-3.84,6.9,2.42,2.42,0,0,0-.06.35c4.19-1.33,8.24-1.47,12,1a11.31,11.31,0,0,1,5.24,9.27,64,64,0,0,1,0,7.33c-.44,8-6.23,15.15-14.61,16a33.53,33.53,0,0,1-8.89-.17,1.56,1.56,0,0,0-.71,0,11.67,11.67,0,0,1-4,.27q-20.73,0-41.46,0a3.74,3.74,0,0,1-3.7-2.22A3.54,3.54,0,0,1,0,69.93Q0,40.52,0,11.08A3.67,3.67,0,0,1,3.73,7.33c1.46,0,2.92,0,4.38,0a1,1,0,0,0,1-.54,3.54,3.54,0,0,1,3.3-1.91c1.92,0,3.83,0,5.75,0a1,1,0,0,0,1-.63A7,7,0,0,1,25.82,0a7.08,7.08,0,0,1,6.69,4.25,1,1,0,0,0,1,.63c1.87,0,3.74,0,5.61,0a3.72,3.72,0,0,1,3.48,2,.85.85,0,0,0,.87.46c1.35,0,2.69,0,4,0a3.83,3.83,0,0,1,4.19,4.21c0,5.6,0,11.21,0,16.81a4.7,4.7,0,0,1,0,.65,4.68,4.68,0,0,0,1.5,4.43A8.19,8.19,0,0,1,54.76,36.26ZM7.54,40.46V65.18c0,.95,0,1,1,1H38.69c.88,0,.88,0,.42-.81a16.73,16.73,0,0,1-2.28-7.78c-.08-2.42,0-4.84,0-7.26a10.74,10.74,0,0,1,1.24-4.68,11.57,11.57,0,0,1,4.65-4.95c.49-.27.46-.46.09-.81a6.49,6.49,0,0,1-1.39-2.08,12.32,12.32,0,0,1-.83-6.54,1.6,1.6,0,0,1,1.21-1.45,5.6,5.6,0,0,1,1.55-.3c.63,0,.81-.23.8-.85,0-4.31,0-8.62,0-12.94,0-.3.16-.74-.34-.81s-.89-.15-1.19.39a3.91,3.91,0,0,1-3.77,2c-1.67,0-3.35,0-5,0H12.67a3.75,3.75,0,0,1-3.51-1.83,1,1,0,0,0-1.23-.6c-.61.13-.38.65-.38,1Q7.52,28.17,7.54,40.46ZM71.16,53.35c0-.81,0-2.07-.12-3.34A9,9,0,0,0,64,42a20.68,20.68,0,0,0-4.09-.11,3.3,3.3,0,0,0-3.27,3.24c0,.48,0,1,0,1.44a1.32,1.32,0,1,1-2.63,0c0-.45,0-.91,0-1.36a3.32,3.32,0,0,0-3.29-3.3c-1,0-2,0-3,0a7.84,7.84,0,0,0-5.82,2.85,9.36,9.36,0,0,0-2.37,6.09c-.09,3-.31,6.1.39,9.08a13.82,13.82,0,0,0,8.94,10.44c2.88,1.08,5.9.8,8.89.73a11.78,11.78,0,0,0,2.77-.32,13.8,13.8,0,0,0,9.8-9.08C71.17,59.13,71.15,56.47,71.16,53.35ZM44.32,71a13.58,13.58,0,0,1-2-1.63,1.83,1.83,0,0,0-1.52-.6H7.93c-2.13,0-3-.91-3-3.07V35q0-10,0-20a2.53,2.53,0,0,1,2.56-2.77c1.07-.05,1.07-.05,1.07-1.15a3.08,3.08,0,0,1,0-.43c0-.49-.19-.68-.68-.68-1.32,0-2.64,0-4,0A1.15,1.15,0,0,0,2.6,11.12a5.74,5.74,0,0,0,0,.93V69c0,.24,0,.48,0,.72C2.66,70.68,3,71,4,71.12H43.55A1.22,1.22,0,0,0,44.32,71ZM25.78,14.66h13c1.32,0,1.64-.33,1.64-1.67s0-2.68,0-4c0-1.12-.33-1.45-1.46-1.45H32.64c-1.53,0-1.78-.19-2.28-1.65a4.82,4.82,0,0,0-9.13.06c-.43,1.33-.77,1.58-2.17,1.58H12.81c-1.29,0-1.63.34-1.64,1.6V13c0,1.27.4,1.66,1.68,1.66ZM49,20.47c0-3,0-6,0-9,0-1.06-.38-1.44-1.42-1.45H44.45c-1.52,0-1.32-.12-1.39,1.33,0,.75.22,1,.94.93a2.47,2.47,0,0,1,2.44,1.34,3.84,3.84,0,0,1,.35,1.89V27.82c0,1.6,0,1.57,1.53,2.1.61.21.73.06.73-.54C49,26.41,49,23.44,49,20.47ZM45.46,32c-.68,0-1.23.11-1.78.12s-.59.2-.59.62A8.72,8.72,0,0,0,43.93,37a4,4,0,0,0,3.64,2.26,19.64,19.64,0,0,1,4.78.22c.36.1.42-.11.34-.4-.16-.65-.29-1.31-.48-2A7.14,7.14,0,0,0,45.46,32Z"/><path class="cls-1" d="M18.51,47.29V49A2.5,2.5,0,0,1,16,51.64c-1.24.06-2.49.06-3.73,0A2.55,2.55,0,0,1,9.79,49c0-1.1,0-2.21,0-3.31a2.57,2.57,0,0,1,2.65-2.77,32.89,32.89,0,0,1,3.44,0,2.56,2.56,0,0,1,2.63,2.85ZM14.15,49C16,49,16,49,16,47.2s0-1.7-1.7-1.7-1.81,0-1.81,1.81S12.44,49,14.15,49Z"/><path class="cls-1" d="M18.5,58.25c0,.67,0,1.34,0,2a2.39,2.39,0,0,1-2.11,2.35,18.32,18.32,0,0,1-4.44,0,2.43,2.43,0,0,1-2.15-2.4c0-1.27,0-2.54,0-3.8a2.49,2.49,0,0,1,2.48-2.48q1.91-.09,3.81,0a2.48,2.48,0,0,1,2.41,2.6c0,.57,0,1.15,0,1.72Zm-4.3,1.82c1.75,0,1.75,0,1.75-1.72s0-1.79-1.82-1.79-1.69,0-1.69,1.72S12.44,60.07,14.2,60.07Z"/><path class="cls-1" d="M18.51,36.21c0,.6,0,1.2,0,1.8a2.48,2.48,0,0,1-2.43,2.58c-1.27,0-2.54,0-3.81,0a2.5,2.5,0,0,1-2.46-2.5c0-1.22,0-2.44,0-3.66a2.45,2.45,0,0,1,2.31-2.54,18.7,18.7,0,0,1,4.23,0,2.4,2.4,0,0,1,2.16,2.38c0,.64,0,1.29,0,1.93Zm-2.56,0c0-1.8,0-1.8-1.81-1.8s-1.7,0-1.7,1.7,0,1.81,1.82,1.81S16,38,16,36.24Z"/><path class="cls-1" d="M18.5,25.16c0,.65,0,1.3,0,1.94a2.42,2.42,0,0,1-2.35,2.43c-1.31,0-2.63,0-3.94,0a2.45,2.45,0,0,1-2.4-2.4c-.05-1.28-.05-2.58,0-3.87a2.48,2.48,0,0,1,2.52-2.43c1.24,0,2.48,0,3.73,0A2.42,2.42,0,0,1,18.5,23.3C18.52,23.92,18.5,24.54,18.5,25.16Zm-2.55,0c0-2,.29-1.69-1.71-1.71h-.07c-2,0-1.73-.22-1.73,1.7s-.27,1.72,1.75,1.74C16,26.91,16,26.9,16,25.17Z"/><path class="cls-1" d="M30.67,27.1h-8a3.43,3.43,0,0,1-.79,0,1.23,1.23,0,0,1-1-1.21,1.17,1.17,0,0,1,.93-1.28,3.67,3.67,0,0,1,1-.11q7.91,0,15.81,0a4.79,4.79,0,0,1,1,.11,1.22,1.22,0,0,1,1,1.24,1.3,1.3,0,0,1-1.09,1.25,4.14,4.14,0,0,1-.79,0Z"/><path class="cls-1" d="M28.88,38.16H22.63a2.39,2.39,0,0,1-1-.15,1.28,1.28,0,0,1,0-2.36,2.51,2.51,0,0,1,1.06-.15H35.06a3.45,3.45,0,0,1,.85.08,1.27,1.27,0,0,1,0,2.48,3.5,3.5,0,0,1-.85.08Z"/><path class="cls-1" d="M27.62,49.21H22.81a4.12,4.12,0,0,1-1-.11,1.2,1.2,0,0,1-1-1.26A1.28,1.28,0,0,1,22,46.6a3.44,3.44,0,0,1,.64,0H32.71a3,3,0,0,1,.79.06,1.23,1.23,0,0,1,1,1.21,1.22,1.22,0,0,1-.89,1.25,3,3,0,0,1-1,.12Z"/><path class="cls-1" d="M27.73,57.62H32.9c1,0,1.51.44,1.55,1.21A1.31,1.31,0,0,1,33,60.22c-1.41.06-2.82,0-4.23,0H23a4.91,4.91,0,0,1-.86,0,1.29,1.29,0,0,1-1.27-1.37,1.27,1.27,0,0,1,1.42-1.2C24.1,57.61,25.91,57.63,27.73,57.62Z"/><path class="cls-1" d="M41.7,51a7.37,7.37,0,0,1,4.21-6.68,1.31,1.31,0,0,1,1.91.5,1.27,1.27,0,0,1-.7,1.78,4.88,4.88,0,0,0-2.77,4.45,3.44,3.44,0,0,1-.1.63,1.28,1.28,0,0,1-2.55-.18C41.69,51.37,41.7,51.2,41.7,51Z"/><path class="cls-1" d="M28.92,9.77h7.4a3.13,3.13,0,0,1,.92.1,1.18,1.18,0,0,1,.89,1.25,1.2,1.2,0,0,1-.9,1.17,3.46,3.46,0,0,1-1.06.13H21.58a4.05,4.05,0,0,1-.92-.1,1.28,1.28,0,0,1-1-1.28,1.33,1.33,0,0,1,1.19-1.24,11,11,0,0,1,1.15,0Z"/><path class="cls-1" d="M15.44,12.41c-1.16,0-1.79-.36-1.9-1.08A1.16,1.16,0,0,1,14,10.06,3,3,0,0,1,16.58,10a1.11,1.11,0,0,1,.7,1.16,1.19,1.19,0,0,1-.83,1.15A2.24,2.24,0,0,1,15.44,12.41Z"/></g></g></svg>