<svg xmlns="http://www.w3.org/2000/svg" viewBox="0 0 199.34 186.77"><defs><style>.cls-1{fill:#fff;}</style></defs><g id="Capa_2" data-name="Capa 2"><g id="Capa_1-2" data-name="Capa 1"><g id="WSmA4G"><path class="cls-1" d="M47.19,36.28c3.47,0,6.94.07,10.4,0a18,18,0,0,1,8.19,1.84c5.79,2.69,9.69,7.23,12.34,12.93a115.85,115.85,0,0,1,4.27,12.15Q88,79.86,93.47,96.6a7.68,7.68,0,0,1-4,9.59c-3.25,1.53-6.43,1.4-9.3-1a7.47,7.47,0,0,1-2.33-3.53q-5.53-17.1-11-34.23c-.15-.46-.29-.92-.43-1.38a1.81,1.81,0,0,0-.39-.72,1.23,1.23,0,0,0-1.56-.27c-.54.31-.38.77-.25,1.22,1.18,4.24,2.59,8.43,3.88,12.64q4.41,14.46,8.84,28.92Q80,118,83.12,128.11c0,.11.07.22.1.33.25.83.2.91-.67.91H68.7c-1,0-1,0-1,1-.16,14.49-.07,29-.16,43.49,0,1.79,0,3.58-.09,5.37a6.38,6.38,0,0,1-1.32,3,9.47,9.47,0,0,1-11.35,4,10.67,10.67,0,0,1-5.64-5.42,6.37,6.37,0,0,1-.66-3c0-5.42.07-10.85,0-16.27-.15-10.41-.08-20.81-.1-31.22,0-.7-.21-1-.9-.89a7.34,7.34,0,0,1-1.24,0c-.55,0-.71.21-.71.74,0,2.8,0,5.6,0,8.41-.17,13.23-.11,26.46-.1,39.69,0,3.75-3.94,7.71-7.21,8.26-3.08.52-6,.25-8.42-1.9A13.12,13.12,0,0,1,27.07,181a7.43,7.43,0,0,1-.83-3.76c0-6.59.08-13.19,0-19.78-.12-9.07-.08-18.15-.1-27.22,0-.73-.27-.88-.93-.87-4.54,0-9.09,0-13.64,0-1,0-1,0-.73-1q3.33-10.83,6.68-21.66L28.94,69.59c.29-.92.59-1.84.87-2.76a.94.94,0,0,0-.64-1.24c-.73-.24-1.1-.08-1.33.6q-6.06,18.16-12.12,36.34a6.72,6.72,0,0,1-3.87,4,8.71,8.71,0,0,1-10.44-2.95,7.8,7.8,0,0,1-1-7.1q3-9,6-18c2.22-6.67,4.47-13.32,6.67-20a50.11,50.11,0,0,1,4.07-9.92,25.39,25.39,0,0,1,9.94-10,18.72,18.72,0,0,1,8.71-2.28c3.79,0,7.58,0,11.38,0Z"/><path class="cls-1" d="M140.11,123.1V68.58a5.88,5.88,0,0,0-.05-1c-.12-.71-.47-1-1.13-.92s-.79.52-.79,1.07q0,7.3,0,14.61c0,4.23,0,8.46,0,12.68,0,2.16,0,4.33-.09,6.48a6.28,6.28,0,0,1-1.89,3.67,7.69,7.69,0,0,1-12.94-2.36,7.41,7.41,0,0,1-.53-2.73c0-5.13.08-10.25,0-15.38-.16-10,0-19.94-.11-29.91A14.88,14.88,0,0,1,124.05,49a25.58,25.58,0,0,1,5.41-7.92,11.72,11.72,0,0,1,2.4-1.73A32.94,32.94,0,0,1,139.23,36a3.33,3.33,0,0,1,1.08-.16H181a10.52,10.52,0,0,1,3.45.89c7.28,2.58,11.93,7.66,14.24,15a11.79,11.79,0,0,1,.54,3.59c0,5.81-.08,11.62,0,17.43.16,9,.1,18.06.09,27.09a7.64,7.64,0,0,1-4.95,7.31c-3,1.31-5.62.55-8-1.51a7.69,7.69,0,0,1-2.67-6q0-16.12,0-32.26c0-.5,0-1-.7-1-1,0-1,0-1,1,0,8,0,16-.08,24-.1,7.84,0,15.67-.13,23.5-.14,9,0,18.06-.14,27.09-.12,7.6,0,15.21-.14,22.81-.09,4.66,0,9.33-.07,14a3.47,3.47,0,0,1-.44,1.7,17,17,0,0,1-2.21,3.4,9.54,9.54,0,0,1-15.85-3.3,12.35,12.35,0,0,1-.74-4.3q0-34.74.05-69.48a1.55,1.55,0,0,0-2.14-1.55,1.05,1.05,0,0,0-.59,1c0,3.63,0,7.26,0,10.89,0,6.5,0,13-.05,19.51-.14,10.86,0,21.73-.14,32.59-.05,3.27,0,6.53-.06,9.79a5.53,5.53,0,0,1-1.14,2.84,9.41,9.41,0,0,1-9.43,4.85c-4.11-.4-6.66-2.88-8.11-6.63a7.75,7.75,0,0,1-.46-2.83Q140.13,150.15,140.11,123.1Z"/><path class="cls-1" d="M160.79,0a17,17,0,1,1-17,17A17,17,0,0,1,160.79,0Z"/><path class="cls-1" d="M47.08,0a17,17,0,1,1-17,16.85A17.08,17.08,0,0,1,47.08,0Z"/></g></g></g></svg>