<svg xmlns="http://www.w3.org/2000/svg" viewBox="0 0 88.39 88.47"><defs><style>.cls-1{fill:#fff;}</style></defs><g id="Capa_2" data-name="Capa 2"><g id="Capa_1-2" data-name="Capa 1"><path class="cls-1" d="M35.36,28H38c.42,0,.66-.15.64-.6a2.25,2.25,0,0,1,0-.26c0-1.94,0-1.92-1.92-1.94a6.93,6.93,0,0,0-3.38.68,8.16,8.16,0,0,1-7.32,0,4.45,4.45,0,0,0-2.72-.37,10.32,10.32,0,0,1-6.58-1.2A3,3,0,0,0,14.89,24a6.88,6.88,0,0,1-6.44-2.5A1.31,1.31,0,0,0,7.24,21a8.58,8.58,0,0,1-5.47-1.45A3.74,3.74,0,0,1,.05,15.7a3.57,3.57,0,0,1,2.66-3c3.55-1.12,6.79-3,10.19-4.41a27.08,27.08,0,0,1,8.15-2.38c4.72-.41,8.42,1.46,11.37,5.07a15.37,15.37,0,0,0,4.13,4c.5.28,1.06.82,1.55.58s.16-1,.2-1.52a6.25,6.25,0,0,0-.74-3.35,6.86,6.86,0,0,1,.92-8A7,7,0,0,1,46.07.28,7.14,7.14,0,0,1,51.5,6a6.15,6.15,0,0,1-.62,4.59,5.72,5.72,0,0,0-.79,3.52c0,.49-.29,1.19.2,1.43s1-.27,1.47-.54A15.79,15.79,0,0,0,56,11c2.28-2.71,5-4.69,8.61-5a19.15,19.15,0,0,1,8.75,1.47c2.91,1.1,5.66,2.53,8.5,3.79a35.26,35.26,0,0,0,3.85,1.5,3.56,3.56,0,0,1,2.66,3,3.7,3.7,0,0,1-1.71,3.86A8.29,8.29,0,0,1,81.42,21a1.89,1.89,0,0,0-1.7.72,6.81,6.81,0,0,1-6,2.26,3.47,3.47,0,0,0-2.06.38,11,11,0,0,1-7.27,1.08,2.09,2.09,0,0,0-1.39.21,8.8,8.8,0,0,1-8.73-.23A4.32,4.32,0,0,0,52,25.18c-2,0-1.91,0-2.13,1.86-.08.74.12.93.85.95,2.11,0,4.24-.24,6.34.29a10.37,10.37,0,0,1,5,17.18,1.73,1.73,0,0,0-.48,2,9.91,9.91,0,0,1-1.73,8.95,1.28,1.28,0,0,0-.18,1.41,10.16,10.16,0,0,1-6.1,13.65c-.7.25-.84.44-.44,1.11a10.2,10.2,0,0,1,1.48,5.33,4.4,4.4,0,0,1-4.81,4.65c-1-.07-1.07.31-1,1a4.54,4.54,0,0,1-6.63,4.35,4.26,4.26,0,0,1-2.45-4,1,1,0,0,1,0-.17c0-1.25,0-1.25-1.27-1.25-3,0-5-2.53-4.51-5.79a10.89,10.89,0,0,1,1.46-4.29c.36-.59.24-.78-.39-1a10.18,10.18,0,0,1-7-10.35,8.75,8.75,0,0,1,.8-3.33,1.15,1.15,0,0,0-.13-1.34A10.06,10.06,0,0,1,27,47a1.08,1.08,0,0,0-.31-1.22A10,10,0,0,1,24,35.16a10.12,10.12,0,0,1,8.35-7.09A21.62,21.62,0,0,1,35.36,28Zm.41-5.86h.51c2.23,0,2.21,0,2.19-2.26a.89.89,0,0,0-.78-1,11,11,0,0,1-5.32-3.2c-.89-.93-1.77-1.88-2.59-2.88A9.33,9.33,0,0,0,21.4,9.09a22.67,22.67,0,0,0-7.08,2c-3.51,1.49-6.86,3.36-10.5,4.54-.33.1-.58.27-.61.64s.2.57.48.75a6.61,6.61,0,0,0,4.59.69c1.21-.15,1.68,0,2.21,1.11a3.56,3.56,0,0,0,2.43,1.89,6,6,0,0,0,2.89-.09,1.62,1.62,0,0,1,1.39.27,8,8,0,0,0,7,1.3,3,3,0,0,1,2.29.39,5.39,5.39,0,0,0,5.66.31A6.09,6.09,0,0,1,35.77,22.11Zm45.71-4.23a5.56,5.56,0,0,0,3.14-.77c.3-.19.59-.38.56-.79s-.34-.56-.68-.67A57.91,57.91,0,0,1,78.15,13a51.81,51.81,0,0,0-8.36-3.41C65.28,8.35,61.37,9.15,58.4,13c-.37.47-.78.92-1.18,1.37a13.85,13.85,0,0,1-5.44,4.1c-1.91.7-1.89.71-1.86,2.81,0,.59.2.82.8.81,1.18,0,2.36,0,3.53,0a1.9,1.9,0,0,1,1.22.33,5.54,5.54,0,0,0,6.32.26,3.68,3.68,0,0,1,2.69-.44,7.57,7.57,0,0,0,6-.91,3.44,3.44,0,0,1,2.89-.56A3.86,3.86,0,0,0,78,18.63a1.69,1.69,0,0,1,1.86-.93C80.4,17.77,80.94,17.82,81.48,17.88ZM42.42,45.58h9c3.11.07,5.45,2.8,4.46,5.6A2,2,0,0,0,56.78,54c.55.37.73.29,1-.21a7.23,7.23,0,0,0-6.33-10.86q-8.66,0-17.32,0a4.53,4.53,0,0,1-4.66-5.52,4.47,4.47,0,0,1,4.34-3.51c1.47,0,2.93,0,4.4,0a1.32,1.32,0,0,0,1.4-1.33,1.15,1.15,0,0,0-1.11-1.3,26.67,26.67,0,0,0-6.19.11,7.21,7.21,0,0,0,1.54,14.27C36.73,45.59,39.57,45.57,42.42,45.58Zm.67,11.73c2.47.1,5.06-.16,7.63.13a4.34,4.34,0,0,1,1,8.41,10.44,10.44,0,0,1-1.73.52c-.89.18-1,.77-.85,1.49.08.48,1.08,1.27,1.52,1.17,2.51-.54,4.66-1.64,5.9-4a7.12,7.12,0,0,0-6.15-10.36c-4.47-.06-9,0-13.44,0a4.57,4.57,0,0,1-4.63-4.4c0-.53.47-1.18,0-1.54s-1.1-.25-1.63-.47-.83-.1-1,.56a7.17,7.17,0,0,0,6.7,8.53C38.61,57.36,40.79,57.31,43.09,57.31Zm1-17.6c.49,0,1,0,1.47,0s.83-.17.84-.78c0-1,.07-2,.12-3a1.94,1.94,0,0,0-.3-1.14,4.26,4.26,0,0,1,0-4.72,1.93,1.93,0,0,0,.32-1c.1-4.62.19-9.23.31-13.85,0-.68-.24-.78-.82-.6a6.24,6.24,0,0,1-3.73,0c-.7-.22-.9,0-.88.7.09,3.79.1,7.58.22,11.36A8.09,8.09,0,0,0,42.5,31a2.9,2.9,0,0,1,0,3,6,6,0,0,0-.58,3.73C42.08,39.7,42.05,39.71,44.12,39.71Zm-13,21.94a6.93,6.93,0,0,0,5.3,7,30.67,30.67,0,0,1,7.76,3.22c2.41,1.51,4.42,3.31,4.6,6.44a1.21,1.21,0,0,0,1.43,1.06,1.19,1.19,0,0,0,1.19-1.23A7.18,7.18,0,0,0,50.2,73.8,14.15,14.15,0,0,0,44.69,69a37.59,37.59,0,0,0-7.59-3,4.43,4.43,0,0,1-3.32-4.22c0-.57.57-1.22,0-1.68a9.06,9.06,0,0,0-1.64-.73c-.44-.23-.61-.07-.75.34A5.82,5.82,0,0,0,31.11,61.65ZM44.2,3.21a4.17,4.17,0,0,0-4.28,4.22,4.28,4.28,0,1,0,8.55,0A4.16,4.16,0,0,0,44.2,3.21Zm8.58,28c-.94,0-1.89,0-2.84,0a1.18,1.18,0,0,0-1.19,1.22,1.28,1.28,0,0,0,1,1.39,4.06,4.06,0,0,0,.86.06c1.35,0,2.69,0,4,0a4.51,4.51,0,0,1,3.91,6.34c-.25.53-1,1-.76,1.54s.85.82,1.25,1.26.63.41,1,0a7.27,7.27,0,0,0-2.35-11.08A10.05,10.05,0,0,0,52.78,31.16ZM42.65,78.83c.11,2-.06,3.52.15,5,.13.93.57,1.36,1.35,1.38s1.32-.43,1.43-1.39a41.39,41.39,0,0,0,.09-5A4.53,4.53,0,0,0,43.28,75c-.16-.11-.33-.33-.53-.17s-.09.31-.09.48C42.65,76.67,42.65,78,42.65,78.83Zm3.42-16h0c0-.58,0-1.15,0-1.72s-.18-.64-.62-.63h-.77c-2.3,0-2.23,0-2.32,2.31,0,1.2.22,2,1.48,2.27a5.52,5.52,0,0,1,1.39.66c.49.27.72.24.73-.4C45.94,64.5,46,63.67,46.07,62.84Zm-10-23.14h.86c2.1-.05,1.84.38,1.86-2,0-.51-.19-.72-.71-.72-1.38,0-2.76,0-4.13,0a1.3,1.3,0,0,0-1.41,1.3,1.35,1.35,0,0,0,1.38,1.36C34.64,39.73,35.36,39.7,36.08,39.7ZM52.39,37H50.24c-.3,0-.61,0-.62.43,0,.6,0,1.21,0,1.81,0,.33.23.44.53.44,1.49,0,3,0,4.47,0A1.32,1.32,0,0,0,54.54,37C53.83,37,53.11,37,52.39,37Zm-12.89,39h-.07c0-.86,0-1.72,0-2.57a.5.5,0,0,0-.26-.51c-.23-.11-.39,0-.51.2A7.37,7.37,0,0,0,37,78.28a1.21,1.21,0,0,0,1.4,1.08,1.07,1.07,0,0,0,1.09-1.25C39.48,77.43,39.5,76.74,39.5,76.06Zm4.72-27.3H42.76c-.23,0-.5,0-.55.31a7.41,7.41,0,0,0,0,2c0,.27.3.32.54.32h2.83c.42,0,.59-.19.63-.61.22-2,.18-2.07-1.83-2.07Zm-6.44,0a8.39,8.39,0,0,0-1.13,0,1.34,1.34,0,0,0-.95,2,3.56,3.56,0,0,0,3.11.51.33.33,0,0,0,.1-.14,4.2,4.2,0,0,0,0-2.2C38.67,48.52,38,48.85,37.78,48.79Zm12.91,2.64h1a1.25,1.25,0,0,0,1.19-1.06A1.17,1.17,0,0,0,52.23,49a4.49,4.49,0,0,0-2.52-.17.32.32,0,0,0-.23.22,4.34,4.34,0,0,0,0,2.12C49.71,51.72,50.37,51.34,50.69,51.43ZM39.21,61.92c-.2-.53.39-1.47-.82-1.43A1.28,1.28,0,0,0,37,61.8a1.64,1.64,0,0,0,1.79,1.37C39.59,63.05,39,62.32,39.21,61.92Zm10.64-1.45c-.35,0-.67.14-.64.77a12.5,12.5,0,0,1,0,1.37c0,.5.15.72.66.53.22-.08.44-.13.66-.22a1.17,1.17,0,0,0,.85-1.4C51.23,60.83,50.74,60.54,49.85,60.47Z"/></g></g></svg>