<svg xmlns="http://www.w3.org/2000/svg" viewBox="0 0 186.31 186.31"><defs><style>.cls-1{fill:#fff;}.cls-2{fill:none;}</style></defs><g id="Capa_2" data-name="Capa 2"><g id="Capa_1-2" data-name="Capa 1"><g id="IOmIXl.tif"><path class="cls-1" d="M42.78,153.29c-4.23-1.82-5.82-5.18-5.77-9.6.06-4.94-.06-9.89,0-14.83,0-2.25-.65-3.18-3.06-3.2-4.49,0-6-2.32-4.64-6.61,2-6.17,4.08-12.32,5.66-18.73-1.6,2-3.14,4.13-4.8,6.12-3.19,3.83-7.93,4.58-11.48,1.9-3.78-2.86-4.54-7.68-1.56-11.77,5-6.89,10-13.83,15.38-20.44,11.71-14.35,34.71-13.71,46.39,1.19,4.81,6.13,9.41,12.42,14,18.7,3.31,4.51,2.82,9.42-1.09,12.27s-8.62,1.91-12.1-2.54a49.25,49.25,0,0,0-5-5.74c2,6,3.92,11.95,5.86,17.93,1.85,5.69.83,7.34-5,7.74-1.82.13-2.35.89-2.33,2.55,0,5-.2,9.91.07,14.84.25,4.6-1.29,8-5.34,10.22H62.38c-3.91-2-5.52-5.11-5.34-9.49.2-5,.06-10.08,0-15.12,0-1.17.43-2.76-1.51-2.88-2.14-.14-1.89,1.52-1.9,2.85,0,5-.09,10.09,0,15.12.09,4.48-1.66,7.71-5.82,9.52Z"/><path class="cls-1" d="M121.81,153.29c-3.92-2.15-5.41-5.4-5.34-9.89.19-12.53.06-25.06.06-37.58v-3.73c-1.34,1.91-2.21,3.32-3.24,4.59a8.26,8.26,0,0,1-11.06,1.88,8,8,0,0,1-2.65-10.62c4.81-8.16,9.44-16.51,15.4-23.86,10.48-12.94,32-11.32,41.47,2.81,4.26,6.4,8.31,12.93,12.38,19.45,2.91,4.66,2,9.66-2,12.25s-8.75,1.35-11.89-3.32l-1.59-2.34a6,6,0,0,0-.47,3.48c0,12.31-.08,24.63,0,37,0,4.55-1.49,8-5.79,9.93h-5c-4.2-1.8-5.9-5-5.83-9.52.1-6.31,0-12.62,0-18.93,0-1.33.25-3-1.89-2.88-1.94.12-1.51,1.72-1.52,2.89,0,6.21-.19,12.42,0,18.61.16,4.48-1.3,7.79-5.36,9.83Z"/><path class="cls-1" d="M38.84,45.91a16.22,16.22,0,0,1,32.44.27,16.22,16.22,0,1,1-32.44-.27Z"/><path class="cls-1" d="M134.65,30.11a16.31,16.31,0,0,1,16.18,16.31c0,8.57-7.5,15.92-16.28,16A16.25,16.25,0,0,1,118.47,46,16,16,0,0,1,134.65,30.11Z"/></g><rect class="cls-2" width="186.31" height="186.31"/></g></g></svg>